<svg display="none">
  <svg xmlns="http://www.w3.org/2000/svg" width="12" height="17" fill="currentColor" class="bi bi-search" viewBox="0 0 16 16" id="search">
    <path d="M11.742 10.344a6.5 6.5 0 1 0-1.397 1.398h-.001c.03.04.062.078.098.115l3.85 3.85a1 1 0 0 0 1.415-1.414l-3.85-3.85a1.007 1.007 0 0 0-.115-.1zM12 6.5a5.5 5.5 0 1 1-11 0 5.5 5.5 0 0 1 11 0z"/>
  </svg>
  <svg xmlns="http://www.w3.org/2000/svg" width="16" height="16" fill="black" class="bi bi-person" viewBox="0 0 16 16" id="profile">
    <path d="M8 8a3 3 0 1 0 0-6 3 3 0 0 0 0 6Zm2-3a2 2 0 1 1-4 0 2 2 0 0 1 4 0Zm4 8c0 1-1 1-1 1H3s-1 0-1-1 1-4 6-4 6 3 6 4Zm-1-.004c-.001-.246-.154-.986-.832-1.664C11.516 10.68 10.289 10 8 10c-2.29 0-3.516.68-4.168 1.332-.678.678-.83 1.418-.832 1.664h10Z"/>
  </svg>
  <svg xmlns="http://www.w3.org/2000/svg" width="20" height="20" fill="white" class="bi bi-handbag" viewBox="0 0 16 16" id="bag">
    <path d="M8 1a2 2 0 0 1 2 2v2H6V3a2 2 0 0 1 2-2m3 4V3a3 3 0 1 0-6 0v2H3.36a1.5 1.5 0 0 0-1.483 1.277L.85 13.13A2.5 2.5 0 0 0 3.322 16h9.355a2.5 2.5 0 0 0 2.473-2.87l-1.028-6.853A1.5 1.5 0 0 0 12.64 5zm-1 1v1.5a.5.5 0 0 0 1 0V6h1.639a.5.5 0 0 1 .494.426l1.028 6.851A1.5 1.5 0 0 1 12.678 15H3.322a1.5 1.5 0 0 1-1.483-1.723l1.028-6.851A.5.5 0 0 1 3.36 6H5v1.5a.5.5 0 1 0 1 0V6z"/>
  </svg>
  <svg xmlns="http://www.w3.org/2000/svg" width="20" height="20" fill="white" class="bi bi-heart-fill" viewBox="0 0 16 16" id="heart">
    <path fill-rule="evenodd" d="M8 1.314C12.438-3.248 23.534 4.735 8 15-7.534 4.736 3.562-3.248 8 1.314"/>
  </svg>
  <svg xmlns="http://www.w3.org/2000/svg" width="12" height="13" fill="black" class="bi bi-search" viewBox="0 0 16 16" id="search_fill">
    <path d="M11.742 10.344a6.5 6.5 0 1 0-1.397 1.398h-.001c.03.04.062.078.098.115l3.85 3.85a1 1 0 0 0 1.415-1.414l-3.85-3.85a1.007 1.007 0 0 0-.115-.1zM12 6.5a5.5 5.5 0 1 1-11 0 5.5 5.5 0 0 1 11 0z"/>
  </svg>
  <svg xmlns="http://www.w3.org/2000/svg" width="16" height="16" fill="currentColor" class="bi bi-trash3" viewBox="0 0 16 16" id="remove">
    <path d="M6.5 1h3a.5.5 0 0 1 .5.5v1H6v-1a.5.5 0 0 1 .5-.5M11 2.5v-1A1.5 1.5 0 0 0 9.5 0h-3A1.5 1.5 0 0 0 5 1.5v1H1.5a.5.5 0 0 0 0 1h.538l.853 10.66A2 2 0 0 0 4.885 16h6.23a2 2 0 0 0 1.994-1.84l.853-10.66h.538a.5.5 0 0 0 0-1zm1.958 1-.846 10.58a1 1 0 0 1-.997.92h-6.23a1 1 0 0 1-.997-.92L3.042 3.5zm-7.487 1a.5.5 0 0 1 .528.47l.5 8.5a.5.5 0 0 1-.998.06L5 5.03a.5.5 0 0 1 .47-.53Zm5.058 0a.5.5 0 0 1 .47.53l-.5 8.5a.5.5 0 1 1-.998-.06l.5-8.5a.5.5 0 0 1 .528-.47M8 4.5a.5.5 0 0 1 .5.5v8.5a.5.5 0 0 1-1 0V5a.5.5 0 0 1 .5-.5"/>
  </svg>
</svg>